<svg xmlns="http://www.w3.org/2000/svg" viewBox="0 0 24 24"><defs><style>.a6b51b61-956d-4b74-92b7-dc47a25c6a2f{fill:#ffcdc8;}.e5e1441c-2635-4583-8761-591bcae1f2c5{fill:#ed5145;}</style></defs><title>icon_bin_singlecolor</title><g id="f2f3420b-af26-408b-987f-9dafb9a42e23" data-name="Layer 15"><rect class="a6b51b61-956d-4b74-92b7-dc47a25c6a2f" x="1" width="22" height="7" rx="2.03"/><path class="e5e1441c-2635-4583-8761-591bcae1f2c5" d="M18,24H6a2,2,0,0,1-2-2L3,10A1,1,0,0,1,4,9H4a1,1,0,0,1,1,1L6,21a1,1,0,0,0,1,1H17a1,1,0,0,0,1-1l1-11a1,1,0,0,1,1-1h0a1,1,0,0,1,1,1L20,22A2,2,0,0,1,18,24Z"/><path class="e5e1441c-2635-4583-8761-591bcae1f2c5" d="M1,2V5A2,2,0,0,0,3,7H21a2,2,0,0,0,2-2V2a2,2,0,0,0-2-2H3A2,2,0,0,0,1,2ZM20,5H4A1,1,0,0,1,3,4V3A1,1,0,0,1,4,2H20a1,1,0,0,1,1,1V4A1,1,0,0,1,20,5Z"/><path class="e5e1441c-2635-4583-8761-591bcae1f2c5" d="M14.47,10.61,12,13.09,9.53,10.61A1,1,0,0,0,8.11,12l2.48,2.47L8.11,17a1,1,0,0,0,1.42,1.42L12,15.91l2.47,2.48A1,1,0,0,0,15.89,17L13.41,14.5,15.89,12a1,1,0,0,0-1.42-1.42Z"/></g></svg>