<?xml version="1.0" encoding="utf-8"?>
<!-- Generator: Adobe Illustrator 28.2.0, SVG Export Plug-In . SVG Version: 6.00 Build 0)  -->
<svg version="1.1" id="Layer_1" xmlns="http://www.w3.org/2000/svg" xmlns:xlink="http://www.w3.org/1999/xlink" x="0px" y="0px"
	 viewBox="0 0 256 256" style="enable-background:new 0 0 256 256;" xml:space="preserve">
<style type="text/css">
	.st0{fill:#334994;stroke:#F99746;stroke-width:3;stroke-miterlimit:10;}
	.st1{fill:#F99746;stroke:#334994;stroke-width:2;stroke-miterlimit:10;}
</style>
<g>
	<g>
		<path class="st0" d="M143.7,155.1c1.3-2.7,2.5-5.4,3.4-8.2l23-3.9v-29.8l-23-3.9c-0.9-2.9-2-5.6-3.4-8.3l13.5-19l-21-21.1
			L117,74.5c-2.6-1.3-5.3-2.3-8.1-3.2L105,48H75.2l-4,23.4c-2.7,0.9-5.2,2-7.7,3.2L44,60.9l-21.1,21l13.9,19.6
			c-1.2,2.4-2.2,4.9-3.1,7.5L10,113.1V143l23.7,4c0.9,2.6,1.9,5.1,3.1,7.5L23,174.1l21,21.1l19.5-13.8c2.5,1.3,5,2.3,7.7,3.2l4,23.5
			H105l4-23.2c2.8-1,5.5-2,8.1-3.3l19.1,13.6l21.1-21.1L143.7,155.1z M90.4,156.6c-15.8,0-28.6-12.8-28.6-28.6s12.8-28.6,28.6-28.6
			S119,112.2,119,128S106.2,156.6,90.4,156.6z"/>
		<path class="st1" d="M232.7,51.4c-1.5-4.6-3.9-8.7-7.1-12.3l4.7-12.7l-14.9-8.6l-8.6,10.4c-2.2-0.5-4.5-0.7-6.9-0.7
			c-2.5,0-4.9,0.3-7.2,0.8L184,17.9l-15,8.6l4.8,13c-3,3.4-5.3,7.4-6.8,11.8l-13.7,2.3v17.2l13.7,2.4c1.5,4.4,3.8,8.4,6.8,11.8
			L169,98l15,8.6l8.7-10.5c2.3,0.5,4.7,0.8,7.2,0.8c2.4,0,4.6-0.2,6.9-0.7l8.6,10.4l15-8.6l-4.7-12.7c3.2-3.5,5.6-7.7,7.1-12.3
			l13.3-2.3V53.6L232.7,51.4z M199.8,78.8c-9.1,0-16.5-7.4-16.5-16.5s7.4-16.5,16.5-16.5s16.5,7.4,16.5,16.5S208.9,78.8,199.8,78.8z
			"/>
		<path class="st1" d="M225.6,168.6l4.7-12.6l-15-8.6l-8.6,10.4c-2.2-0.5-4.5-0.7-6.9-0.7c-2.5,0-4.9,0.3-7.2,0.8l-8.7-10.5l-15,8.6
			l4.8,13c-3,3.4-5.3,7.4-6.8,11.8l-13.7,2.3v17.2l13.7,2.3c1.5,4.4,3.8,8.4,6.8,11.8l-4.8,13l15,8.6l8.7-10.5
			c2.3,0.5,4.7,0.8,7.2,0.8c2.4,0,4.6-0.3,6.9-0.7l8.6,10.4l15-8.6l-4.7-12.7c3.2-3.5,5.6-7.7,7.1-12.3l13.3-2.2V183l-13.3-2.3
			C231.1,176.3,228.7,172.1,225.6,168.6z M199.8,208.4c-9.1,0-16.5-7.4-16.5-16.5c0-9.2,7.4-16.5,16.5-16.5s16.5,7.4,16.5,16.5
			C216.4,201,208.9,208.4,199.8,208.4z"/>
	</g>
</g>
</svg>
