<?xml version="1.0" encoding="utf-8"?>
<!-- Generator: Adobe Illustrator 28.2.0, SVG Export Plug-In . SVG Version: 6.00 Build 0)  -->
<svg version="1.1" id="Layer_1" xmlns="http://www.w3.org/2000/svg" xmlns:xlink="http://www.w3.org/1999/xlink" x="0px" y="0px"
	 viewBox="0 0 36 36" style="enable-background:new 0 0 36 36;" xml:space="preserve">
<style type="text/css">
	.st0{fill:#F89747;}
	.st1{fill:#334A95;}
</style>
<g id="Layer_2">
	<path class="st0" d="M18,14.05c2.17,0,3.93,1.71,3.93,3.83s-1.76,3.83-3.93,3.83s-3.93-1.71-3.93-3.83c0-0.39,0.06-0.77,0.17-1.13
		c0.29,0.73,1.02,1.26,1.87,1.26c1.11,0,2.01-0.87,2.01-1.95c0-0.84-0.54-1.55-1.3-1.83C17.19,14.11,17.59,14.05,18,14.05z"/>
</g>
<path id="_x31_" class="st1" d="M0.88,17.32c0.98-1.15,2-2.2,3.04-3.12c4.07-3.61,8.65-5.53,13.37-5.63
	c4.71-0.1,9.55,1.63,14.16,5.33c1.25,1,2.48,2.14,3.68,3.43c0.26,0.28,0.27,0.69,0.05,0.98c-1.34,1.84-2.84,3.39-4.47,4.65
	c-3.63,2.82-7.85,4.21-12.13,4.24c-4.27,0.03-8.59-1.31-12.42-3.94c-1.92-1.32-3.71-2.96-5.32-4.92C0.59,18.03,0.61,17.6,0.88,17.32
	L0.88,17.32z M25.26,11.84c0.65,0.74,1.18,1.58,1.56,2.48c0.47,1.1,0.73,2.3,0.73,3.55c0,1.25-0.26,2.45-0.73,3.55
	c-0.48,1.13-1.18,2.15-2.07,3.02l-0.13,0.12c1.79-0.65,3.51-1.59,5.1-2.83c1.36-1.06,2.64-2.34,3.79-3.84
	c-1.02-1.05-2.04-1.99-3.07-2.82C28.74,13.72,27,12.64,25.26,11.84L25.26,11.84z M10.9,24.09c-0.72-0.78-1.31-1.68-1.73-2.66
	c-0.48-1.13-0.73-2.33-0.73-3.55c0-1.25,0.26-2.45,0.73-3.55c0.46-1.09,1.13-2.07,1.96-2.91C9,12.3,6.94,13.61,4.99,15.34
	c-0.86,0.76-1.7,1.6-2.5,2.51c1.4,1.63,2.95,3.01,4.58,4.13C8.3,22.83,9.58,23.53,10.9,24.09z M21.04,10.71
	c-0.93-0.38-1.96-0.59-3.04-0.59c-1.08,0-2.11,0.21-3.04,0.59c-0.97,0.39-1.85,0.97-2.59,1.69c-0.74,0.72-1.33,1.57-1.73,2.52
	c-0.39,0.91-0.6,1.91-0.6,2.96c0,1.05,0.21,2.05,0.6,2.96c0.4,0.94,0.99,1.8,1.73,2.52c0.74,0.71,1.61,1.29,2.59,1.68
	c0.93,0.38,1.96,0.59,3.04,0.59c1.08,0,2.11-0.21,3.04-0.59c0.97-0.39,1.85-0.97,2.59-1.68c0.74-0.72,1.33-1.57,1.73-2.51
	c0.39-0.91,0.6-1.91,0.6-2.97c0-1.05-0.21-2.05-0.6-2.96c-0.4-0.95-0.99-1.8-1.73-2.52C22.9,11.68,22.02,11.11,21.04,10.71
	L21.04,10.71z"/>
</svg>
