<svg id="Layer_1" data-name="Layer 1" xmlns="http://www.w3.org/2000/svg" viewBox="0 0 22 26.03"><defs><style>.cls-1{fill:#28396f;}.cls-2{fill:none;stroke:#f4a74a;stroke-miterlimit:10;}.cls-3{fill:#f4a74a;}.cls-4{fill:#fff;}</style></defs><path class="cls-1" d="M6.3,0A4.43,4.43,0,1,1,1.87,4.42,4.42,4.42,0,0,1,6.3,0"/><path class="cls-1" d="M12.59,14.57v.5l-.26.06a5.8,5.8,0,0,0-4.41,5.64,5.48,5.48,0,0,0,.16,1.35H0V14.57A5.82,5.82,0,0,1,3.73,9.25,7.2,7.2,0,0,0,6,9.7V14h.85V9.69a7.12,7.12,0,0,0,2-.43,5.84,5.84,0,0,1,3.67,5.31Z"/><path class="cls-2" d="M18.5,20.77a4.76,4.76,0,0,1-9.32,1.35A5,5,0,0,1,9,20.77a4.74,4.74,0,0,1,3.6-4.6A4.37,4.37,0,0,1,13.74,16,4.76,4.76,0,0,1,18.5,20.77Z"/><polygon class="cls-3" points="13.74 18.19 13.74 20.78 16.23 20.78 16.23 21.45 13.74 21.45 13.02 21.45 13.02 18.19 13.74 18.19"/><path class="cls-1" d="M19,14a3,3,0,1,0,3,3A3,3,0,0,0,19,14ZM19,19l-.06,0-.08.14-2.19-1.26.45-.79,1.47.84,1.7-3,.79.45Z"/><polygon class="cls-4" points="21.07 15.4 18.99 19.01 18.93 18.98 18.85 19.12 16.66 17.86 17.11 17.07 18.58 17.91 20.28 14.95 21.07 15.4"/></svg>