<?xml version="1.0" encoding="utf-8"?>
<!-- Generator: Adobe Illustrator 26.1.0, SVG Export Plug-In . SVG Version: 6.00 Build 0)  -->
<svg version="1.1" id="Layer_1" xmlns="http://www.w3.org/2000/svg" xmlns:xlink="http://www.w3.org/1999/xlink" x="0px" y="0px"
	 viewBox="0 0 30 30" style="enable-background:new 0 0 30 30;" xml:space="preserve">
<style type="text/css">
	.st0{fill:none;stroke:#1C75BC;stroke-miterlimit:10;}
	.st1{fill:none;stroke:#000000;stroke-miterlimit:10;}
</style>
<path class="st0" d="M15.14,7.16c0,2.26-1.83,4.1-4.09,4.1c-2.28,0-4.1-1.84-4.1-4.1c0-0.11,0-0.21,0.03-0.32
	C7.41,7,7.87,7.08,8.35,7.08c2.15,0,3.94-1.66,4.1-3.77C14.03,3.88,15.14,5.39,15.14,7.16z"/>
<path class="st0" d="M12.45,3.31c-0.17,2.11-1.95,3.77-4.1,3.77C7.87,7.08,7.41,7,6.98,6.84c0.15-2.11,1.91-3.78,4.08-3.78
	C11.54,3.06,12.02,3.14,12.45,3.31z"/>
<path class="st0" d="M14.39,13.85"/>
<path class="st0" d="M13.31,22.61H3.69v-4.56l0.03-0.33c-0.03-0.08-0.03-0.18-0.03-0.27c0-2.19,4-1.81,7.61-3.96
	c0.31-0.19,1.59,0.63,2.01,0.61"/>
<path class="st0" d="M20.2,19.64v4.1c0,0.53-0.43,0.95-0.95,0.95h-3.67c-0.53,0-0.96-0.42-0.96-0.95V13.14
	c0-0.53,0.43-0.96,0.96-0.96h3.67c0.52,0,0.95,0.43,0.95,0.96v3.76"/>
<path class="st0" d="M17.29,18.23"/>
<path class="st1" d="M29.7,20.47"/>
<polyline class="st0" points="22.33,15.48 26.52,18.26 22.33,21 "/>
<line class="st0" x1="26.01" y1="18.24" x2="17.44" y2="18.26"/>
</svg>
