<svg xmlns="http://www.w3.org/2000/svg" viewBox="0 0 24 24"><defs><style>.a8b682dd-17e4-4612-993a-3882557769a4{fill:#0689f4;}</style></defs><title>icon_select_singlecolor</title><g id="fd06ab1f-4a2b-4486-8871-dc9631dfe79c" data-name="Layer 3"><path class="a8b682dd-17e4-4612-993a-3882557769a4" d="M6.62,4.09,3.79,6.91,2.38,5.5A1,1,0,0,0,1,5.5,1,1,0,0,0,1,6.91L3.09,9A1,1,0,0,0,4.5,9L8,5.5A1,1,0,0,0,8,4.09,1,1,0,0,0,6.62,4.09Z"/><rect class="a8b682dd-17e4-4612-993a-3882557769a4" x="11" y="3" width="12" height="2" rx="1"/><rect class="a8b682dd-17e4-4612-993a-3882557769a4" x="11" y="7" width="12" height="2" rx="1"/><rect class="a8b682dd-17e4-4612-993a-3882557769a4" x="11" y="15" width="12" height="2" rx="1"/><rect class="a8b682dd-17e4-4612-993a-3882557769a4" x="11" y="19" width="12" height="2" rx="1"/><rect class="a8b682dd-17e4-4612-993a-3882557769a4" x="1" y="14" width="8" height="8" rx="2.04"/></g></svg>